<mxfile host="app.diagrams.net" modified="2021-10-18T08:44:48.692Z" agent="5.0 (Windows NT 10.0; Win64; x64) AppleWebKit/537.36 (KHTML, like Gecko) Chrome/94.0.4606.81 Safari/537.36" etag="SZb_qq7HR2189wjJTaGO" version="15.5.2" type="github">
  <diagram id="UpQXV0bkHhJ45pT5pMi0" name="Page-1">
    <mxGraphModel dx="1021" dy="619" grid="1" gridSize="10" guides="1" tooltips="1" connect="1" arrows="1" fold="1" page="1" pageScale="1" pageWidth="1654" pageHeight="1169" math="0" shadow="0">
      <root>
        <mxCell id="0" />
        <mxCell id="1" parent="0" />
        <mxCell id="oBr3ydIlAz2J9fcUPosE-1" value="POINT" style="swimlane;" vertex="1" parent="1">
          <mxGeometry x="320" y="160" width="440" height="470" as="geometry" />
        </mxCell>
        <mxCell id="oBr3ydIlAz2J9fcUPosE-3" value="Point Apps" style="swimlane;fillColor=#33FF33;" vertex="1" parent="oBr3ydIlAz2J9fcUPosE-1">
          <mxGeometry x="10" y="30" width="220" height="200" as="geometry" />
        </mxCell>
        <mxCell id="oBr3ydIlAz2J9fcUPosE-6" value="ERP" style="shape=card;whiteSpace=wrap;html=1;fontColor=#FFFFFF;fillColor=#000000;strokeColor=none;fontStyle=1" vertex="1" parent="oBr3ydIlAz2J9fcUPosE-3">
          <mxGeometry x="30" y="50" width="80" height="100" as="geometry" />
        </mxCell>
        <mxCell id="oBr3ydIlAz2J9fcUPosE-7" value="PointHR" style="shape=card;whiteSpace=wrap;html=1;fontColor=#000000;fillColor=#17FF0F;strokeColor=none;fontStyle=1" vertex="1" parent="oBr3ydIlAz2J9fcUPosE-3">
          <mxGeometry x="125" y="50" width="80" height="100" as="geometry" />
        </mxCell>
        <mxCell id="oBr3ydIlAz2J9fcUPosE-10" value="Connect" style="swimlane;" vertex="1" parent="oBr3ydIlAz2J9fcUPosE-1">
          <mxGeometry y="250" width="440" height="200" as="geometry" />
        </mxCell>
        <mxCell id="oBr3ydIlAz2J9fcUPosE-11" value="High&lt;br&gt;Quallity Backlink" style="shape=card;whiteSpace=wrap;html=1;fontColor=#FFFFFF;fillColor=#000000;strokeColor=none;fontStyle=1" vertex="1" parent="oBr3ydIlAz2J9fcUPosE-10">
          <mxGeometry x="170" y="50" width="80" height="100" as="geometry" />
        </mxCell>
        <mxCell id="oBr3ydIlAz2J9fcUPosE-8" value="&lt;h1&gt;Fokus kemana&lt;/h1&gt;" style="text;html=1;strokeColor=none;fillColor=none;spacing=5;spacingTop=-20;whiteSpace=wrap;overflow=hidden;rounded=0;fontColor=#000000;" vertex="1" parent="1">
          <mxGeometry x="60" y="20" width="250" height="40" as="geometry" />
        </mxCell>
        <mxCell id="oBr3ydIlAz2J9fcUPosE-14" value="&lt;b&gt;VDW &lt;/b&gt;= vendor dengan website&lt;br&gt;&lt;b&gt;N&lt;/b&gt; = Jumlah vendor" style="text;html=1;strokeColor=none;fillColor=none;align=left;verticalAlign=middle;whiteSpace=wrap;rounded=0;fontSize=17;fontColor=#000000;" vertex="1" parent="1">
          <mxGeometry x="1010" y="910" width="300" height="30" as="geometry" />
        </mxCell>
        <mxCell id="oBr3ydIlAz2J9fcUPosE-22" value="&lt;b&gt;VDW&lt;/b&gt; * &lt;b&gt;N&lt;/b&gt; = Unique high quallity backlick" style="text;html=1;strokeColor=none;fillColor=none;align=left;verticalAlign=middle;whiteSpace=wrap;rounded=0;fontSize=24;fontColor=#000000;" vertex="1" parent="1">
          <mxGeometry x="760" y="870" width="440" height="30" as="geometry" />
        </mxCell>
        <mxCell id="oBr3ydIlAz2J9fcUPosE-23" value="Vendor&#xa;dengan&#xa;Website" style="shape=umlActor;verticalLabelPosition=bottom;verticalAlign=top;outlineConnect=0;fontSize=24;fontColor=#000000;strokeColor=default;fillColor=#FFFFFF;fontStyle=1;spacingTop=5;" vertex="1" parent="1">
          <mxGeometry x="110" y="450" width="30" height="60" as="geometry" />
        </mxCell>
      </root>
    </mxGraphModel>
  </diagram>
</mxfile>
